<?xml version="1.0" encoding="UTF-8" standalone="no"?>
<svg width="60px" height="60px" viewBox="0 0 60 60" version="1.1" xmlns="http://www.w3.org/2000/svg" xmlns:xlink="http://www.w3.org/1999/xlink">
    <!-- Generator: Sketch 3.8.3 (29802) - http://www.bohemiancoding.com/sketch -->
    <title>gluten free</title>
    <desc>Created with Sketch.</desc>
    <defs>
        <circle id="path-1" cx="30" cy="30" r="29.6875"></circle>
        <polygon id="path-3" points="30.66375 61.875 0.0375 61.875 0.0375 0.599375 30.66375 0.599375 61.29 0.599375 61.29 61.875"></polygon>
    </defs>
    <g id="Page-1" stroke="none" stroke-width="1" fill="none" fill-rule="evenodd">
        <g id="Desktop-HD" transform="translate(-555.000000, -741.000000)">
            <g id="Content" transform="translate(98.000000, 181.000000)">
                <g id="gluten-free" transform="translate(457.000000, 560.000000)">
                    <mask id="mask-2" fill="white">
                        <use xlink:href="#path-1"></use>
                    </mask>
                    <g id="Oval-2"></g>
                    <g id="gluten-free-seeklogo.com" mask="url(#mask-2)">
                        <g transform="translate(-0.625000, -1.250000)">
                            <g id="Group-3" stroke-width="1" fill="none">
                                <mask id="mask-4" fill="white">
                                    <use xlink:href="#path-3"></use>
                                </mask>
                                <g id="Clip-2"></g>
                                <path d="M30.6431433,2.495 C14.7912683,2.495 1.89376831,15.39375 1.89376831,31.249375 C1.89376831,47.09125 14.7912683,59.979375 30.6431433,59.979375 C46.4956433,59.979375 59.3925183,47.09125 59.3925183,31.249375 C59.3925183,15.39375 46.4956433,2.495 30.6431433,2.495 L30.6431433,2.495 Z M0,31.249375 C0,14.34875 13.7475,0.599375 30.645,0.599375 C47.5425,0.599375 61.29,14.34875 61.29,31.249375 C61.29,48.136875 47.5425,61.875 30.645,61.875 C13.7475,61.875 0,48.136875 0,31.249375 Z" id="Fill-1" fill="#ADADAD" mask="url(#mask-4)"></path>
                            </g>
                            <path d="M42.98875,20.658125 C43.448125,20.43375 46.28,18.75375 46.28,18.3925 C46.28,18.24625 46.27,17.553125 46.28,16.87875 C46.28,16.556875 47.11,15.570625 47.36375,15.150625 C47.598125,14.769375 46.358125,14.97 45.85,15.258125 C43.40875,16.698125 42.8425,17.1425 42.8425,17.40625 C42.8425,17.645625 42.803125,19.17375 42.803125,19.686875 C42.77375,20.394375 42.754375,20.79 42.98875,20.658125 M37.88125,24.261875 C38.320625,24.008125 41.143125,22.255 41.143125,21.859375 C41.143125,21.63 41.1725,19.59375 41.1725,19.07625 C41.1725,18.573125 41.23125,17.9825 40.723125,18.309375 C38.291875,19.891875 37.725,20.394375 37.725,20.658125 C37.725,20.936875 37.68625,22.62625 37.67625,23.1925 C37.666875,23.97375 37.6275,24.39375 37.88125,24.261875 M50.938125,16.17125 C50.635625,16.698125 50.43,16.47375 49.678125,16.590625 C49.101875,16.698125 48.72125,16.903125 48.51625,17.084375 C48.125625,17.40625 47.090625,18.319375 46.52375,18.846875 C45.7525,19.555 45.791875,19.80875 46.1825,19.80875 C46.95375,19.80875 49.063125,19.891875 49.2975,19.686875 C49.678125,19.34 51.1625,17.66 51.924375,16.58125 C52.325,15.990625 51.32875,15.4775 50.938125,16.17125 M41.1725,23.529375 C42.16875,23.5975 45.645,23.695625 45.90875,23.490625 C46.32875,23.1925 48.066875,21.835 48.809375,21.126875 C49.229375,20.73125 49.004375,20.79 45.9575,20.658125 C45.205625,20.624375 44.34625,20.624375 44.121875,20.79 C43.6825,21.06875 41.95375,22.245 41.33875,22.72375 C40.48875,23.373125 40.50875,23.490625 41.1725,23.529375 M37.325,26.849375 C38.31125,26.961875 41.465625,27.21125 41.729375,27.045 C42.188125,26.766875 43.896875,25.73625 44.698125,25.101875 C45.1375,24.740625 45.010625,24.666875 42.031875,24.345 C41.289375,24.271875 40.3325,24.213125 40.08875,24.345 C39.62,24.60875 38.20375,25.54625 37.549375,25.975625 C36.660625,26.561875 36.69,26.766875 37.325,26.849375 M34.004375,28.14875 C34.385625,27.845625 35.3525,27.1525 35.830625,26.766875 C36.31875,26.385625 36.826875,25.73625 36.826875,25.448125 C36.826875,25.184375 36.84625,22.7725 36.84625,22.181875 C36.84625,21.58625 36.875625,21.234375 36.5825,21.43 C35.90875,21.89375 33.848125,23.949375 33.848125,24.271875 C33.848125,24.584375 33.848125,26.336875 33.82875,27.00625 C33.82875,27.91875 33.789375,28.305 34.004375,28.14875 M49.34625,43.641875 C48.565,43.935 46.485,45.55625 44.483125,45.605 C42.959375,45.614375 40.87,45.096875 38.83875,41.728125 C38.145,40.55625 35.479375,36.044375 32.510625,31.1125 C32.510625,30.921875 32.52,30.85875 33.0475,30.85875 C33.73125,30.85875 33.78,30.79 34.7175,30.726875 C35.635625,30.668125 36.406875,30.595 37.53,29.935625 C38.6625,29.27625 39.75625,28.641875 39.815,28.363125 C39.87375,28.1 40.049375,27.909375 39.414375,27.909375 C38.789375,27.909375 36.153125,27.909375 36.094375,27.94375 C35.625625,28.173125 33.62375,29.251875 33.37,29.623125 C33.09625,29.984375 32.57875,30.2825 32.57875,30.091875 C32.57875,30.091875 32.549375,30.248125 32.490625,28.988125 C32.4225,27.72875 32.47125,27.5575 32.656875,27.391875 C32.851875,27.235625 32.774375,26.58625 32.774375,26.16625 C32.774375,25.721875 32.8325,25.17 32.37375,25.53125 C31.914375,25.878125 31.21125,26.68375 30.996875,26.98625 C30.86,27.186875 30.45,27.10375 30.03,27.079375 C26.32875,21.16625 22.95,16.79625 19.258125,15.94625 C17.78375,15.585 14.854375,15.43875 10.986875,18.178125 C9.65875,19.125 9.024375,19.618125 8.975,19.95 C8.916875,20.2775 9.15125,20.516875 9.6,20.253125 C10.03,19.975 12.969375,17.7825 16.27,18.55875 C19.580625,19.34 20.684375,21.06875 21.924375,22.591875 C22.46125,23.24125 25.205625,27.09375 28.164375,31.7475 C28.21375,32.128125 28.379375,32.353125 27.646875,32.929375 C26.816875,33.593125 16.65125,40.96625 11.348125,48.05625 C10.5475,49.120625 11.504375,50.02875 12.178125,49.40375 C13.066875,48.554375 13.848125,47.06 14.385625,46.5325 C14.9125,46.005 16.69,43.329375 18.93625,42.00125 C21.191875,40.683125 21.69,40.575625 21.729375,41.308125 C21.768125,42.020625 19.87375,44.891875 19.473125,49.56 C19.385625,50.65375 19.61,51.141875 19.76625,50.95625 C19.9325,50.790625 20.723125,49.520625 21.11375,49.051875 C21.514375,48.593125 22.813125,47.43125 22.8425,47.089375 C22.871875,46.766875 24.56125,42.11875 24.961875,41.298125 C25.351875,40.468125 25.625625,39.061875 26.485,38.134375 C26.778125,37.821875 27.090625,37.294375 26.289375,37.196875 C25.49875,37.09875 24.1025,38.690625 23.145,38.426875 C22.715625,38.32 24.04375,36.855 24.77625,36.22 C25.49875,35.614375 25.87,35.33125 26.7975,34.804375 C27.715625,34.276875 28.701875,33.77875 29.111875,33.8375 C29.229375,33.8375 29.34625,33.866875 29.473125,33.856875 C32.774375,39.266875 35.469375,44.325625 36.69,45.55625 C38.0375,46.90375 38.975,48.2125 41.95375,47.801875 C44.0825,47.489375 44.678125,47.284375 49.4925,44.481875 C50.38125,43.954375 50.1375,43.35875 49.34625,43.641875" id="Fill-4" fill="#ADADAD"></path>
                        </g>
                    </g>
                </g>
            </g>
        </g>
    </g>
</svg>