<?xml version="1.0" encoding="UTF-8" standalone="no"?>
<svg width="60px" height="63px" viewBox="0 0 60 63" version="1.1" xmlns="http://www.w3.org/2000/svg" xmlns:xlink="http://www.w3.org/1999/xlink">
    <!-- Generator: Sketch 3.8.3 (29802) - http://www.bohemiancoding.com/sketch -->
    <title>vegan</title>
    <desc>Created with Sketch.</desc>
    <defs></defs>
    <g id="Page-1" stroke="none" stroke-width="1" fill="none" fill-rule="evenodd">
        <g id="Desktop-HD" transform="translate(-633.000000, -741.000000)" fill="#ADADAD">
            <g id="Content" transform="translate(98.000000, 181.000000)">
                <g id="vegan" transform="translate(535.000000, 560.000000)">
                    <g id="svg2646">
                        <g id="layer1" transform="translate(0.196289, 0.168832)">
                            <path d="M29.7402474,0.297781414 C13.5000305,0.297781414 0.315905263,13.4716925 0.315905263,29.6790945 C0.315905263,44.2227067 10.9399053,56.3039087 24.8553789,58.63364 L24.8553789,57.6816198 C11.4514142,55.3704824 1.26985263,43.7172246 1.26985263,29.6790945 C1.26985211,13.9788013 14.0081737,1.23338747 29.7402474,1.23338747 C45.4723211,1.23338747 58.2435368,13.9788028 58.2435368,29.6790945 C58.2435368,43.6593781 48.1147421,55.2705794 34.7895895,57.6487915 L34.7895895,58.6172259 C48.6281632,56.2233717 59.1810368,44.1681697 59.1810368,29.6790945 C59.1810316,13.4716909 45.9804579,0.297781414 29.7402474,0.297781414 L29.7402474,0.297781414 Z M41.1711684,6.46949859 C41.0198516,6.48850222 40.9356421,6.53497657 40.8257737,6.58439758 C40.4678779,6.76560444 40.0705105,6.9535503 39.6909053,7.17530667 C39.1935358,7.4724583 38.7244579,7.80103475 38.2764316,8.12732687 C37.8277463,8.45299446 37.4159053,8.80377859 36.9770895,9.24348848 C36.7395884,9.49249075 36.4830105,9.77133576 36.1547211,9.75232687 C35.9856411,9.7428261 35.7843263,9.63980202 35.6941947,9.50611475 C35.5468253,9.33314436 35.5823526,9.07262909 35.6119579,8.83313495 C35.6514305,8.50683705 35.6941947,8.24328687 35.7435368,7.94677131 C35.7823516,7.67876174 35.8395895,7.39406909 35.9080105,7.12606424 L35.9080105,7.1096501 C35.9080095,7.10078331 35.9080105,7.09323596 35.9080105,7.09323596 C35.9080095,7.08372889 35.9080105,7.07682182 35.9080105,7.07682182 C35.9080095,7.06731947 35.9080105,7.04399354 35.9080105,7.04399354 C35.9080095,7.03512202 35.8915632,7.05413091 35.8915632,7.04399354 C35.8816937,7.04399406 35.8849842,7.04399354 35.8751158,7.04399354 C35.8652463,7.04399406 35.8685368,7.03708121 35.8586684,7.02757939 L35.8422211,7.02757939 C35.8323516,7.02757939 35.8191947,7.03449172 35.8093263,7.04399354 C35.7994568,7.04399406 35.8027474,7.04399354 35.7928789,7.04399354 C35.7711674,7.05413143 35.7534053,7.0502703 35.7435368,7.06040768 C35.6349832,7.13707354 35.5244579,7.22932364 35.4145895,7.3066198 C35.0862989,7.54611394 34.7948526,7.81744364 34.5757737,8.14374101 C34.4066937,8.40160848 34.2711684,8.67875798 34.0823526,8.94803394 C33.9534042,9.12924081 33.7915632,9.32728202 33.5724842,9.37480162 C33.4435358,9.40394788 33.3034053,9.39398909 33.1941947,9.32555919 C33.0744568,9.25966574 32.9830105,9.12145657 32.9145895,8.99727636 C32.7356411,8.6614777 32.5389316,8.37759394 32.2895895,8.12732687 C31.9909042,7.80103527 31.6132737,7.54029414 31.2040632,7.33944808 C30.9961674,7.22350331 30.7876158,7.12952566 30.5790632,7.04399354 C30.5573516,7.03385616 30.5389316,7.04399354 30.5297211,7.04399354 C30.5191937,7.04399406 30.5244579,7.04399354 30.5132737,7.04399354 C30.5132726,7.03449224 30.5080105,7.02757939 30.4968263,7.02757939 C30.4869568,7.02757939 30.4902474,7.04399354 30.4803789,7.04399354 C30.4711674,7.04399406 30.4573526,7.03449172 30.4474842,7.04399354 C30.4376147,7.05286505 30.4310368,7.0502703 30.4310368,7.06040768 C30.4211674,7.06991475 30.4310368,7.06732 30.4310368,7.07682182 C30.4310358,7.07682129 30.4310368,7.09951273 30.4310368,7.1096501 C30.4310358,7.12802291 30.4211684,7.13988364 30.4310368,7.15889253 C30.4507726,7.38888485 30.4764316,7.63470828 30.4474842,7.86470061 C30.4159042,8.23027636 30.2797211,8.56362263 30.2007737,8.89879152 C30.1093253,9.26247111 30.0803789,9.60945818 29.9211684,10.0149531 C29.8415621,10.1866535 29.7514316,10.3734695 29.5922211,10.3924784 C29.5231411,10.4102156 29.4389316,10.3950731 29.3619579,10.3760642 C29.1323516,10.3184062 28.9435368,10.2533442 28.7534053,10.1462663 C28.4362989,9.99420618 28.1501158,9.75251596 27.8816947,9.52252889 C27.7027463,9.37743418 27.5257737,9.23267354 27.3553789,9.07934707 C27.3448516,9.06984578 27.3224842,9.07244 27.3224842,9.06293293 C27.3224832,9.05279556 27.3060368,9.04651879 27.3060368,9.04651879 C27.2961674,9.03828335 27.2895895,9.04651879 27.2895895,9.04651879 C27.2777463,9.04651931 27.2731421,9.04651879 27.2731421,9.04651879 C27.2632726,9.04651931 27.2566947,9.04651879 27.2566947,9.04651879 C27.2455095,9.05475527 27.2238,9.04651879 27.2238,9.04651879 C27.2139305,9.05665669 27.2172211,9.06984525 27.2073526,9.07934707 C27.2073516,9.0793476 27.2073526,9.08625414 27.2073526,9.09576121 C27.2073516,9.09576016 27.2073526,9.10267354 27.2073526,9.11217535 C27.1974832,9.14068659 27.1909053,9.16383394 27.1909053,9.19424606 C27.1711674,9.29879285 27.1645895,9.40030788 27.1744579,9.50611475 C27.1744568,9.73547204 27.2290632,9.98193576 27.2895895,10.2119228 C27.3494568,10.4907011 27.4080105,10.7633539 27.3882737,11.0326299 C27.3580095,11.308876 27.2441947,11.568918 27.1251158,11.8369228 C26.8961674,11.7703938 26.6698526,11.7092497 26.5001158,11.5742966 C26.2909042,11.4209701 26.1527474,11.1673624 26.0724842,10.9177309 C26.0034042,10.7073778 25.9626158,10.4727842 25.9409053,10.2611653 C25.9310358,10.2427914 25.9409053,10.2321976 25.9409053,10.2119228 C25.9409042,10.201786 25.9323526,10.2037446 25.9244579,10.1955087 C25.9244568,10.1853703 25.9080105,10.1879661 25.9080105,10.1790945 C25.9080095,10.1790951 25.9014316,10.1626804 25.8915632,10.1626804 L25.8915632,10.1462663 C25.8816937,10.1462668 25.8586684,10.1462663 25.8586684,10.1462663 C25.8487989,10.1462668 25.8507737,10.1462663 25.8422211,10.1462663 C25.84222,10.1462668 25.8257737,10.1544392 25.8257737,10.1626804 L25.8093263,10.1626804 C25.8093253,10.1626799 25.8020895,10.1790945 25.7928789,10.1790945 C25.7632726,10.198104 25.7422211,10.1922836 25.7106421,10.2119228 C25.5527463,10.3380102 25.4810368,10.5287867 25.4310368,10.7207612 C25.3718253,10.950119 25.3455105,11.1903002 25.3159053,11.4101552 C25.2744568,11.6882968 25.2343263,11.9514489 25.1349842,12.2308622 C25.0645884,12.4412096 24.9527474,12.6414364 24.7731421,12.7561147 C24.6553779,12.8315153 24.5172211,12.8874279 24.3784053,12.8874279 C24.1382726,12.8975663 23.9224842,12.7792206 23.7040632,12.674044 C23.3560358,12.4928377 23.0185368,12.3081741 22.7501158,12.0503067 C22.5126168,11.8399541 22.2981421,11.5865875 22.1086684,11.3280844 C22.0988011,11.3166807 22.0955105,11.287078 22.0757737,11.278842 C22.0757747,11.278841 22.0691947,11.2732008 22.0593263,11.2624279 L22.0593263,11.2460137 C22.0494589,11.2460132 22.0428789,11.2460137 22.0428789,11.2460137 C22.0330116,11.2460132 22.0185368,11.2460137 22.0099842,11.2460137 C22.0099853,11.2460132 22.0053789,11.2358764 21.9935368,11.2460137 C21.9935379,11.2460132 21.9770895,11.2541919 21.9770895,11.2624279 C21.9685379,11.2624284 21.9606421,11.2680691 21.9606421,11.278842 C21.9606432,11.278841 21.9441947,11.2870202 21.9441947,11.2952562 C21.9441958,11.2952556 21.9441947,11.3021685 21.9441947,11.3116703 C21.9441958,11.3230798 21.9441947,11.3514109 21.9441947,11.3609127 C21.8836695,11.6662993 21.8428789,11.9551309 21.8126158,12.2636905 C21.7830116,12.6064587 21.7731421,12.9613467 21.8126158,13.2977814 C21.84288,13.7951425 21.9718263,14.2332194 21.9606421,14.8078824 C21.9501168,14.9916205 21.9323526,15.1964012 21.8126158,15.3003067 C21.7139326,15.3959819 21.5211684,15.422118 21.3520895,15.4316198 C21.1224853,15.4506276 20.9270895,15.4739552 20.7270895,15.4644481 C20.3705116,15.4441744 19.9988,15.3568764 19.6415632,15.2510642 C19.1941958,15.1268846 18.7678789,14.9810897 18.3915632,14.7422259 C18.2211695,14.6465569 18.0724842,14.5122125 17.9145895,14.3975289 C17.9047221,14.3880276 17.8816947,14.3811147 17.8816947,14.3811147 C17.8724853,14.3811142 17.8593263,14.3647006 17.8488,14.3647006 C17.8389326,14.3647017 17.8422211,14.3647006 17.8323526,14.3647006 C17.8224853,14.3647017 17.8257737,14.3647006 17.8159053,14.3647006 C17.8060379,14.3647017 17.8093263,14.3709774 17.7994579,14.3811147 C17.7895905,14.3811142 17.7928789,14.3703418 17.7830105,14.3811147 C17.7830116,14.3811142 17.7665632,14.3880271 17.7665632,14.3975289 L17.7501158,14.413943 C17.7501168,14.4139425 17.7501158,14.4221212 17.7501158,14.4303572 C17.7501168,14.4404945 17.7501158,14.4605907 17.7501158,14.4795996 C17.7198537,14.5575261 17.6955105,14.6491459 17.6843263,14.7258117 C17.6540642,14.9266583 17.6705105,15.1146036 17.7007737,15.3167208 C17.7593274,15.6525189 17.8830105,15.9608222 18.0626158,16.268741 C18.2626168,16.6121459 18.5211684,16.9517111 18.4902474,17.3356602 C18.4816958,17.4687177 18.4310368,17.606743 18.3422211,17.7131855 C18.2205116,17.876019 18.0027474,17.9307083 17.7830105,18.00864 C17.2560379,18.180344 16.8007737,18.371059 16.3027474,18.5338925 C15.3968274,18.8506823 14.3915632,19.0864004 13.5560368,19.5843976 C13.2685379,19.7567319 13.0034053,19.9574109 12.7336684,20.1588925 C12.7238011,20.1696602 12.7270895,20.1670707 12.7172211,20.1753067 C12.7066958,20.1753056 12.7007737,20.1753067 12.7007737,20.1753067 C12.7007747,20.1860791 12.6843263,20.1917208 12.6843263,20.1917208 C12.6843274,20.2018582 12.6843263,20.2150473 12.6843263,20.2245491 C12.6843274,20.2346865 12.6843263,20.2409632 12.6843263,20.2409632 C12.6843274,20.2517314 12.6909053,20.2491414 12.7007737,20.2573774 C12.7007747,20.2668844 12.6915632,20.2642844 12.7007737,20.2737915 L12.7172211,20.2902057 C12.7270905,20.2990766 12.7336684,20.2902109 12.7336684,20.2902057 C12.7435379,20.2902051 12.7501158,20.2902109 12.7501158,20.2902057 C12.7586695,20.2902051 12.7731421,20.2902109 12.7830105,20.2902057 C13.0909063,20.2902051 13.4238,20.3020659 13.7205105,20.3394481 C14.0290642,20.3793673 14.2915632,20.4558335 14.6415632,20.5692461 C14.8106432,20.618666 14.9895895,20.6610392 15.0198526,20.7662158 C15.0593274,20.8732937 14.9764316,21.0195608 14.8882737,21.143741 C14.6797221,21.4402613 14.4441947,21.6266424 14.2139316,21.8167208 C13.8369589,22.143649 13.4389316,22.5236477 13.0790632,22.9164683 C12.8711695,23.1464606 12.6757737,23.3827822 12.4869579,23.6222764 C12.4652484,23.6406492 12.4428789,23.6682937 12.4211684,23.6879329 C12.4126168,23.6968055 12.4211684,23.6942097 12.4211684,23.7043471 C12.4211695,23.7043465 12.4047211,23.7112541 12.4047211,23.7207612 C12.4047221,23.7289972 12.4047211,23.7428166 12.4047211,23.7535895 C12.4047221,23.7630908 12.4211684,23.7604966 12.4211684,23.7700036 C12.4211695,23.7700036 12.4126158,23.7762804 12.4211684,23.7864178 L12.4376158,23.7864178 C12.4488011,23.7952893 12.4540632,23.7864178 12.4540632,23.7864178 C12.4632747,23.7864178 12.4599842,23.8028372 12.4705105,23.8028319 C12.4902484,23.8028314 12.5001158,23.8028372 12.5198526,23.8028319 C12.5593274,23.8123385 12.6113,23.8192461 12.6514316,23.8192461 C13.1481432,23.8572638 13.6474842,23.6669806 14.1152474,23.5237915 C14.5626168,23.3799674 14.9764316,23.2805891 15.4639316,23.1462663 C15.6632747,23.0879779 15.8705105,23.02404 16.0395895,23.1298521 C16.1395905,23.1868735 16.2481421,23.292943 16.2369579,23.4088925 C16.2369589,23.5045625 16.1698526,23.5998691 16.0889316,23.6879329 C15.6823537,24.1764293 15.3060368,24.5488586 14.8882737,24.9518218 C14.4113011,25.411172 13.8724842,25.9062687 13.4738,26.4619228 C13.3132747,26.6627689 13.1764316,26.8658053 13.0461684,27.0856602 C13.0363011,27.0951657 13.0297211,27.1102525 13.0297211,27.1184885 C13.0297221,27.1292598 13.0297211,27.1349026 13.0297211,27.1349026 C13.0297221,27.1437731 13.0297211,27.1418097 13.0297211,27.1513168 C13.0297221,27.1614536 13.0297211,27.1575935 13.0297211,27.1677309 C13.0297221,27.1759653 13.0297211,27.1841451 13.0297211,27.1841451 C13.0297221,27.1936458 13.0297211,27.2074715 13.0297211,27.2169733 C13.0395905,27.2169723 13.0363,27.2169733 13.0461684,27.2169733 C13.0461695,27.2271097 13.0626158,27.2333875 13.0626158,27.2333875 C13.0711695,27.2435243 13.0790632,27.2333875 13.0790632,27.2333875 C13.0889326,27.2333869 13.0955105,27.2333875 13.0955105,27.2333875 C13.0955116,27.2333869 13.1020895,27.2333875 13.1119579,27.2333875 C13.1323537,27.2333869 13.1468263,27.2333875 13.1777474,27.2333875 C13.2863011,27.2150136 13.4126158,27.1962416 13.5231421,27.1677309 C13.9711695,27.0802958 14.3981421,26.927118 14.8060368,26.7737915 C15.3034063,26.5830797 15.7566947,26.4059624 16.3027474,26.1664683 C16.6613011,26.0030039 17.0652474,25.8103471 17.3718263,26.0023269 C17.4718274,26.0606126 17.5474842,26.1516036 17.5691947,26.248539 C17.5981432,26.3625813 17.5238,26.5012485 17.4540632,26.6260642 C17.2751168,26.9327235 17.1376158,27.1869446 17.0099842,27.4631855 C16.8099853,27.8851523 16.6099842,28.3560727 16.5001158,28.8255592 C16.4205116,29.1227119 16.3823526,29.4229499 16.3520895,29.728337 C16.3520905,29.7479777 16.3520895,29.7573046 16.3520895,29.7775794 L16.3520895,29.7939935 C16.3520905,29.8035017 16.3520895,29.8104077 16.3520895,29.8104077 C16.3520905,29.8192808 16.3685368,29.8166844 16.3685368,29.8268218 C16.3797221,29.8268239 16.3764316,29.843236 16.3849842,29.843236 C16.3849853,29.8521085 16.4014316,29.8507786 16.4014316,29.8596501 C16.4119589,29.8596517 16.4178789,29.8596501 16.4178789,29.8596501 C16.4270905,29.8596517 16.4343263,29.8596501 16.4343263,29.8596501 C16.4441958,29.8596517 16.4507737,29.8596501 16.4507737,29.8596501 C16.4599853,29.8507802 16.4672211,29.8596501 16.4672211,29.8596501 C16.5066958,29.8298699 16.5534053,29.8054545 16.5823526,29.7775794 C16.7007747,29.6907777 16.8080105,29.5942137 16.9277474,29.498539 C17.1856432,29.2881906 17.4494579,29.0952869 17.7172211,28.8748016 C18.0461695,28.6067983 18.3639316,28.3180077 18.7205105,28.1361653 C19.1777484,27.8763943 19.7001158,27.7851653 20.2172211,27.4303572 C20.4455116,27.285897 20.6547211,27.0910703 20.8751158,27.1677309 C20.9744589,27.19624 21.0718263,27.2778974 21.1218263,27.3647006 C21.2113011,27.5161257 21.1836684,27.6860554 21.1547211,27.8571248 C21.1139326,28.136535 21.1152474,28.4016489 21.0560368,28.6614178 C20.9948537,28.9395658 20.8797211,29.2134844 20.7599842,29.4821248 C20.7389326,29.5106361 20.7205105,29.5514687 20.7106421,29.5806097 C20.7007747,29.5806097 20.7106421,29.5970238 20.7106421,29.5970238 C20.7106432,29.6065262 20.7106421,29.605202 20.7106421,29.613438 C20.7106432,29.6261081 20.7106421,29.6298521 20.7106421,29.6298521 C20.7205116,29.6393592 20.7106421,29.6462663 20.7106421,29.6462663 C20.7205116,29.6570397 20.7185368,29.6544392 20.7270895,29.6626804 C20.7270905,29.6626815 20.7435368,29.6683269 20.7435368,29.6790945 C20.7534063,29.6790951 20.7599842,29.6790945 20.7599842,29.6790945 C20.7711695,29.6879666 20.7764316,29.6790945 20.7764316,29.6790945 C20.7764326,29.6790956 20.7849842,29.6790945 20.7928789,29.6790945 C20.8047221,29.6702241 20.8172211,29.6790945 20.8257737,29.6790945 C20.9165642,29.6683274 21.0145895,29.666541 21.1053789,29.6462663 C21.3941958,29.5981116 21.6639316,29.4611778 21.9113,29.3179834 C22.2691958,29.1260078 22.5968263,28.8972299 22.8652474,28.6285895 C23.1626168,28.3510786 23.3909053,28.0551608 23.7698526,27.75864 C23.9790621,27.5958122 24.2290632,27.4016679 24.4277474,27.4795996 C24.5376147,27.5182482 24.6218263,27.612457 24.6909053,27.7093976 C24.8415621,27.9001078 24.9014316,28.1152444 24.9705105,28.3167208 C25.0593253,28.5853602 25.1672211,28.8523733 25.2665632,29.1210137 C25.2784042,29.1400211 25.2895895,29.1676614 25.2994579,29.1866703 C25.2994568,29.1968066 25.3060368,29.2030844 25.3159053,29.2030844 C25.3159042,29.2119544 25.3159053,29.2093612 25.3159053,29.2194986 C25.3257726,29.2194981 25.3224842,29.2099915 25.3323526,29.2194986 C25.3428779,29.2194981 25.3560368,29.2194986 25.3652474,29.2194986 C25.3744568,29.2194981 25.3718263,29.2194986 25.3816947,29.2194986 C25.3928779,29.2194981 25.3895895,29.2194986 25.3981421,29.2194986 C25.4080095,29.2194981 25.4034053,29.2194986 25.4145895,29.2194986 L25.4310368,29.2194986 C25.4310358,29.2194975 25.4211684,29.211956 25.4310368,29.2030844 C25.4409042,29.1834437 25.4751158,29.1734812 25.4968263,29.153842 C25.5560358,29.0683041 25.6244579,28.975482 25.6941947,28.8912158 C25.9336674,28.6225738 26.1764316,28.3354618 26.3356421,28.0376804 C26.5744568,27.6353517 26.6336684,27.2158703 26.8126158,26.6424784 C26.9020884,26.3060452 27.0435368,25.9265382 27.3224842,25.9366703 C27.4316937,25.9366719 27.5665632,25.9837172 27.6349842,26.0679834 C27.7441937,26.1845617 27.7336684,26.36348 27.7336684,26.5275794 C27.7251147,26.8519754 27.7422211,27.1502505 27.7336684,27.4467713 C27.7218253,27.735687 27.6744579,28.0290715 27.6349842,28.3167208 C27.6257726,28.3838791 27.6119579,28.4560335 27.6020895,28.5136905 C27.6020884,28.5231934 27.6020895,28.5206028 27.6020895,28.5301046 C27.6020884,28.5408776 27.6086684,28.5376473 27.6185368,28.5465188 C27.6185358,28.5547553 27.6244579,28.5679438 27.6349842,28.5793471 L27.6843263,28.6450036 C27.6843253,28.6450052 27.6909053,28.6614178 27.7007737,28.6614178 C27.7007726,28.6709254 27.7007737,28.6778319 27.7007737,28.6778319 C27.7106411,28.6879703 27.7336684,28.6778319 27.7336684,28.6778319 C27.74222,28.677833 27.7501158,28.6778319 27.7501158,28.6778319 C27.7599832,28.677833 27.7665632,28.6778319 27.7665632,28.6778319 C27.7757726,28.677833 27.7830105,28.6778319 27.7830105,28.6778319 C27.8224832,28.6505881 27.8586684,28.6147648 27.8981421,28.5957612 C28.1152463,28.4513021 28.3389316,28.2989988 28.5395895,28.1361653 C28.8961674,27.8485191 29.1922211,27.4998481 29.4606421,27.1349026 C29.7290621,26.7610846 29.9797211,26.3938186 30.2501158,26.018741 C30.4389305,25.7703743 30.6257737,25.5286909 30.9244579,25.3950036 C31.1520884,25.2898271 31.4652474,25.2343079 31.6645895,25.3293471 C31.8534042,25.4161456 31.9659053,25.6271968 32.0757737,25.8381855 C32.1053779,26.182219 32.1323526,26.5338824 32.1415632,26.8886905 C32.1612989,27.6540643 32.0770895,28.4200275 31.9277474,29.1866703 C31.67972,30.5666179 31.1915632,31.888438 30.6448526,33.1917208 C30.0284042,34.6869813 29.3211684,36.1325939 28.8356421,37.6563673 C28.3573516,39.0730679 28.0830105,40.5380339 27.9639316,42.0225289 C27.8737989,43.0863186 27.8613,44.167676 27.9310368,45.2397006 C28.0106411,46.6006457 28.1981421,47.9596 28.4080105,49.3104077 C28.4764305,49.7412461 28.5435368,50.1667846 28.5231421,50.6071248 C28.5231411,50.7610869 28.5073526,50.8995749 28.4080105,51.0338925 C28.3270884,51.1378032 28.2001158,51.2492356 28.0790632,51.2308622 C27.97972,51.2219907 27.8922211,51.1352085 27.8323526,51.0503067 C27.7632726,50.9432287 27.7257737,50.8448804 27.6843263,50.738438 C27.5856411,50.4419224 27.5099842,50.1196275 27.4211684,49.8028319 C27.1612989,48.8739964 26.8494579,47.9732251 26.4507737,47.1109127 C25.8132726,45.6726715 24.9685368,44.3080707 24.0330105,43.0237915 C23.07972,41.683127 22.0211684,40.4142792 20.8093263,39.2649531 C19.6040642,38.0959863 18.2395895,37.0465754 16.6974842,36.3268218 C15.9915642,36.0011584 15.2409053,35.7551107 14.4935368,35.5061147 L14.4770895,35.7523269 C14.5363011,35.7630951 14.5863,35.772423 14.6251158,35.8015693 C14.7060379,35.8490899 14.7218263,35.9810743 14.7402474,36.0970238 C14.7501168,36.2484473 14.7994579,36.3693725 14.8882737,36.4745491 C14.9882747,36.6088667 15.1336684,36.7481636 15.2830105,36.8520743 C15.8099853,37.2449007 16.2751158,37.6667515 16.7139316,38.1159632 C17.9461695,39.3343511 19.0580105,40.7050065 20.1020895,42.1045996 C21.2066958,43.570717 22.2369579,45.0577899 23.0626158,46.6677309 C23.9790642,48.383484 24.6474842,50.2191786 25.2336684,52.0679834 C25.8705095,54.0701147 26.4007737,56.1243931 26.7468263,58.174044 C26.9566937,59.4285467 27.1178789,60.6777495 27.2566947,61.9328824 L31.8784053,62.113438 C31.9001147,61.7218885 31.9080105,61.3175333 31.9277474,60.9152057 C31.9376147,60.6567026 31.9573526,60.3959673 31.9770895,60.1273269 C32.0468253,59.0267915 32.1810368,57.9203891 32.3718263,56.8280844 C32.6099832,55.4766465 32.9336684,54.1446954 33.3422211,52.8230339 C33.7284042,51.5672655 34.1830105,50.3322812 34.7402474,49.1626804 C35.1784042,48.2059644 35.6882737,47.3017475 36.2863,46.3722764 C36.6126147,45.8451329 36.9731421,45.3208731 37.5198526,45.0427309 C37.7086674,44.9375543 37.9205105,44.8591236 38.1284053,44.8293471 C38.4060358,44.7919648 38.6876158,44.8349883 38.9672211,44.8457612 C39.2757726,44.8552683 39.5613,44.8118404 39.8718263,44.7636905 C40.7566937,44.6477463 41.6402474,44.3552279 42.3553789,43.8280844 C43.0415632,43.3579619 43.5961684,42.7025471 43.9343263,41.9732865 C44.2626158,41.2947133 44.4014316,40.5473414 44.4606421,39.7902057 C44.5316947,39.1002334 44.5238,38.3986331 44.6909053,37.738438 C44.8718263,36.8849972 45.3297211,36.0935257 45.7270895,35.3091451 C46.0060368,34.7629912 46.2665632,34.2138832 46.5165632,33.6677309 C46.5244579,33.6582291 46.5165632,33.6608238 46.5165632,33.6513168 C46.5284053,33.6513162 46.5330105,33.6286259 46.5330105,33.6184885 C46.5330105,33.6184885 46.5284053,33.6115762 46.5165632,33.6020743 C46.5165632,33.6020749 46.5165632,33.5951673 46.5165632,33.5856602 C46.5086684,33.5856602 46.5119579,33.5692461 46.5001158,33.5692461 C46.5001158,33.5591082 46.4836684,33.5616982 46.4836684,33.5528319 L46.4672211,33.5528319 C46.4560368,33.5426945 46.4613,33.5364178 46.4507737,33.5364178 C46.4409053,33.5364173 46.4343263,33.5364178 46.4343263,33.5364178 C46.4238,33.5465546 46.4270895,33.5528319 46.4178789,33.5528319 C46.4080105,33.5616982 46.3948526,33.5692461 46.3849842,33.5692461 C46.3751158,33.5787526 46.3784053,33.5925673 46.3685368,33.6020743 C46.2876158,33.6774696 46.1955105,33.7489349 46.1053789,33.8154582 C45.7369579,34.1322543 45.3330105,34.3802517 44.9047211,34.6197511 C44.4659053,34.849744 44.0409053,35.0826141 43.5724842,35.2270743 C42.8652474,35.4754384 42.0922211,35.5141143 41.3356421,35.5717713 C40.1711674,35.6478016 39.0211684,35.7780958 37.9474842,36.1626804 C36.9218253,36.4965803 35.9422211,37.0512764 35.2172211,37.8369228 C34.7099832,38.3628004 34.3198526,39.0030149 34.1316947,39.6917208 C33.8928779,40.4501224 33.8988,41.2867552 34.0494579,42.0717713 C34.0974832,42.3980703 34.1895895,42.7089552 34.3290632,43.0073774 C34.4382726,43.2665118 34.5744579,43.5065196 34.7238,43.7460137 C34.7349832,43.7561506 34.7468263,43.7598331 34.7566947,43.778842 C34.7566937,43.7788415 34.7468263,43.7952562 34.7566947,43.7952562 L34.7731421,43.7952562 C34.7816937,43.8053935 34.7790632,43.8116651 34.7895895,43.8116703 C34.8007726,43.8116708 34.7974842,43.8116651 34.8060368,43.8116703 C34.8152463,43.8218082 34.8119579,43.8116651 34.8224842,43.8116703 C34.8336674,43.8116708 34.8468263,43.8116651 34.8553789,43.8116703 C34.8659042,43.8116708 34.8613,43.7952562 34.8718263,43.7952562 C34.8718253,43.7857543 34.8718263,43.7877135 34.8718263,43.778842 C34.8803779,43.7788415 34.8882737,43.7712941 34.8882737,43.7624279 C34.9112989,43.7244101 34.9159053,43.686177 34.9376158,43.6475289 C34.9770884,43.5037037 35.0297211,43.3583091 35.0691947,43.2043471 C35.1889305,42.7937845 35.2645895,42.3598356 35.4145895,41.9568723 C35.60472,41.3910808 35.9172211,40.8821636 36.3356421,40.413943 C36.7935358,39.8747592 37.3777474,39.4085572 37.9639316,39.1500541 C38.49222,38.9105621 39.0224842,38.8357851 39.7402474,38.6248016 C40.0290621,38.5386334 40.3455105,38.4278739 40.4968263,38.5919733 C40.5757726,38.6781405 40.6106421,38.8515899 40.5790632,38.9859127 C40.5395884,39.1392408 40.3941947,39.2343099 40.2665632,39.3306097 C39.9678779,39.5694756 39.7198526,39.8133378 39.4606421,40.0528319 C38.6448516,40.8384842 37.9066947,41.7623556 37.1909053,42.6626804 C36.1448516,43.9665983 35.1205105,45.229038 34.1974842,46.6184885 C33.4698516,47.6822824 32.8165632,48.81656 32.2895895,49.9177309 C31.9415621,50.6267115 31.6540632,51.3208065 31.2369579,52.1172259 C31.0981411,52.3941022 30.9363,52.6794457 30.6777474,52.7573774 C30.5685358,52.7947596 30.4461684,52.7737915 30.3159053,52.7737915 C30.3257726,52.1883608 30.3297211,51.6098267 30.2994579,51.0338925 C30.2501147,50.2007265 30.1113,49.3802873 29.9540632,48.5553572 C29.7448516,47.4630525 29.5073526,46.3648335 29.3784053,45.2725289 C29.2389305,44.2176065 29.2014316,43.1657935 29.3126158,42.1210137 C29.4218253,40.9241697 29.7159053,39.748842 30.0856421,38.6083875 C30.4336674,37.5344562 30.8448526,36.4984323 31.3027474,35.4732865 C31.7409042,34.4582822 32.2409053,33.4460323 32.6185368,32.4202562 C33.0264305,31.3570967 33.3277474,30.2653289 33.4573526,29.1045996 C33.5968253,28.0971957 33.5988,27.0460614 33.5395895,26.1172259 C33.5093253,25.5026478 33.4303789,24.9634089 33.4409053,24.1967713 C33.4409042,24.0238004 33.4626158,23.8371624 33.5724842,23.7700036 C33.6514305,23.712977 33.7836684,23.7250788 33.9014316,23.7535895 C34.0211674,23.7820997 34.1356421,23.8183741 34.2139316,23.8849026 C34.3843253,24.0185904 34.4580105,24.2440966 34.5757737,24.4265693 C34.6764305,24.5697589 34.7843263,24.690682 34.9047211,24.8040945 C34.9126147,24.8142319 34.9461684,24.827421 34.9540632,24.8369228 C34.9540621,24.8369223 34.9540632,24.842564 34.9540632,24.853337 L34.9869579,24.853337 L35.0034053,24.853337 L35.0198526,24.853337 L35.0363,24.853337 C35.0461674,24.842564 35.0428789,24.8464299 35.0527474,24.8369228 L35.0691947,24.8205087 C35.1494568,24.7343415 35.2323526,24.6466448 35.2830105,24.5414683 C35.3836674,24.3209836 35.3244579,24.0455511 35.3323526,23.7864178 C35.3244568,23.5089059 35.3988,23.2462691 35.4968263,22.998539 C35.5770884,22.7774124 35.6698526,22.5788727 35.8093263,22.3583875 C35.8981411,22.2240652 35.9988,22.0655277 36.1382737,22.0465188 C36.2389305,22.0281444 36.3461684,22.0532525 36.4343263,22.1121754 C36.6349832,22.2268595 36.7474842,22.452996 36.7961684,22.653842 C36.8356411,22.8363142 36.8389316,23.0231733 36.8784053,23.1955087 C36.9178779,23.5021663 37.0152474,23.7935927 37.1251158,24.0818723 C37.1349832,24.1008823 37.1481421,24.12852 37.1580105,24.1475289 C37.1580095,24.1570302 37.1580105,24.163943 37.1580105,24.163943 C37.1580095,24.1734512 37.1744579,24.1702198 37.1744579,24.1803572 C37.1843253,24.1803566 37.1810368,24.1803572 37.1909053,24.1803572 L37.1909053,24.1967713 L37.2238,24.1967713 L37.2402474,24.1967713 C37.2481411,24.1967713 37.2566947,24.1904945 37.2566947,24.1803572 C37.2665621,24.1803566 37.2731421,24.1892287 37.2731421,24.1803572 C37.2803779,24.1803566 37.2895895,24.163943 37.2895895,24.163943 C37.3014305,24.1639441 37.3060368,24.163943 37.3060368,24.163943 C37.3159042,24.1449404 37.3145895,24.1337095 37.3224842,24.1147006 C37.3836674,24.0279032 37.4382737,23.9149208 37.4869579,23.8192461 C37.5876147,23.6272715 37.6547211,23.4298186 37.6843263,23.228337 C37.7534042,22.8919017 37.7389316,22.5628735 37.7172211,22.2270743 C37.6974832,21.7867289 37.6514316,21.3382683 37.8816947,20.9631855 C37.9606411,20.830763 38.0711684,20.6945188 38.2106421,20.6184885 C38.47972,20.4360152 38.8639316,20.4517523 39.2139316,20.4707612 C39.6211674,20.4796333 40.0086684,20.4904057 40.3981421,20.4707612 C40.7461674,20.4612599 41.1027474,20.4267083 41.4507737,20.3886905 C41.4902463,20.388691 41.5264316,20.3824137 41.5659053,20.3722764 L41.5823526,20.3722764 C41.5823516,20.3722753 41.5889316,20.3722764 41.5988,20.3722764 C41.6086674,20.3627682 41.6218263,20.350221 41.6316947,20.3394481 C41.6316937,20.3394481 41.6316947,20.3319002 41.6316947,20.3230339 C41.6316937,20.3230345 41.6316947,20.3154913 41.6316947,20.3066198 C41.6316937,20.3066198 41.6316947,20.2990772 41.6316947,20.2902057 C41.6316937,20.2902051 41.6316947,20.2832933 41.6316947,20.2737915 L41.6316947,20.2573774 C41.6020884,20.2276008 41.5770895,20.2050885 41.5494579,20.1753067 C41.4691937,20.0790006 41.3698526,19.9729269 41.2698526,19.8962663 C41.1520884,19.7999623 41.0211684,19.7191721 40.8915632,19.63364 C40.6244568,19.4708112 40.3731421,19.2977883 40.2336684,18.9442461 C40.1455095,18.7414991 40.0876158,18.4565491 40.2172211,18.3697511 C40.2961674,18.302586 40.4560368,18.3205087 40.5955105,18.3205087 C40.9830095,18.3319124 41.2869579,18.2935002 41.6152474,18.2548521 C42.0928779,18.2073331 42.6244579,18.1814323 43.1119579,18.0578824 C43.4106421,17.9907231 43.6941947,17.8852844 43.9836684,17.778842 C44.0113,17.7687052 44.0349842,17.739737 44.0659053,17.7295996 L44.0823526,17.7295996 C44.0928789,17.7296001 44.0895895,17.7131855 44.0988,17.7131855 C44.0988,17.7036836 44.1152474,17.7069087 44.1152474,17.6967713 L44.1152474,17.6803572 C44.1251158,17.6708554 44.1152474,17.6740804 44.1152474,17.663943 L44.1152474,17.6311147 C44.1152474,17.6216124 44.1086684,17.6242024 44.0988,17.6147006 C44.0882737,17.6039282 44.0757737,17.5901135 44.0659053,17.5818723 C43.9066947,17.4557902 43.7580105,17.3468428 43.5889316,17.2207612 C43.4395895,17.0953104 43.2711684,16.9825067 43.1119579,16.8760642 C42.7540632,16.6555795 42.3909053,16.5181519 42.0922211,16.153842 C41.9527463,15.9903782 41.8297211,15.7800145 41.8784053,15.6285895 C41.9178779,15.4834995 42.1316947,15.3700602 42.3224842,15.2838925 C42.8376158,15.0443926 43.2376158,14.899019 43.6547211,14.6601552 C43.9849842,14.4770516 44.3284053,14.2344537 44.5757737,13.9379329 C44.7547211,13.7364555 44.8836684,13.5277685 45.0034053,13.2977814 C45.0132737,13.278772 45.0336684,13.244857 45.0527474,13.2157107 L45.0527474,13.1992966 C45.0632737,13.1992976 45.0527474,13.1766057 45.0527474,13.1664683 C45.0527474,13.1664693 45.0527474,13.159556 45.0527474,13.1500541 C45.0435368,13.1500547 45.0363,13.1500541 45.0363,13.1500541 C45.0264316,13.1399173 45.0297211,13.1267277 45.0198526,13.1172259 C45.0198526,13.1172264 45.0132737,13.1267277 45.0034053,13.1172259 C45.0034053,13.1172264 44.9823526,13.1172259 44.9705105,13.1172259 C44.9705105,13.1172264 44.9659053,13.1172259 44.9540632,13.1172259 C44.7455105,13.1077193 44.5764316,13.1025345 44.3290632,13.1500541 C44.0580105,13.1880672 43.7027474,13.3020517 43.6218263,13.1664683 C43.5435368,13.0612928 43.6455105,12.800362 43.7534053,12.6083875 C43.8632737,12.4088078 43.9757737,12.2691164 44.1152474,12.1652057 C44.4040632,11.9136733 44.8461684,11.8049244 45.1843263,11.5742966 C45.4415632,11.4209701 45.6599842,11.2051438 45.8586684,10.9833875 C45.8784053,10.9561426 45.8889316,10.9310933 45.9080105,10.9013168 C45.9185368,10.9013162 45.9244579,10.9013168 45.9244579,10.9013168 C45.9336684,10.8918144 45.9409053,10.8798917 45.9409053,10.8684885 L45.9409053,10.8520743 L45.9409053,10.8356602 C45.9409053,10.827419 45.9244579,10.8306493 45.9244579,10.8192461 C45.9244579,10.8110096 45.9080105,10.7959196 45.9080105,10.7864178 C45.8981421,10.7864173 45.9007737,10.7959196 45.8915632,10.7864178 C45.8816947,10.7864173 45.8849842,10.7807766 45.8751158,10.7700036 C45.8553789,10.7700026 45.8455105,10.7782396 45.8257737,10.7700036 C45.5974842,10.7218527 45.3731421,10.6797547 45.1349842,10.6715188 C44.6889316,10.6328712 44.2113,10.6933378 43.8027474,10.7700036 C43.4645895,10.8276596 43.1639316,10.9034966 42.7665632,10.9998016 C42.4580105,11.0751969 42.0968263,11.172137 41.9277474,10.9998016 C41.8099832,10.8952611 41.7863,10.6879539 41.7961684,10.5073774 C41.8060358,10.2387364 41.9224842,10.0112869 42.0428789,9.80156929 C42.2803779,9.37896634 42.5448526,8.96719515 42.7830105,8.55409455 C42.8928789,8.38175919 42.9909053,8.21258061 43.0790632,8.02884202 C43.1086684,7.98258828 43.1297211,7.94441293 43.1613,7.89752889 C43.1691947,7.88802707 43.1613,7.87420242 43.1613,7.86470061 L43.1613,7.84828646 L43.1613,7.83187232 C43.1613,7.82236578 43.1448526,7.82559556 43.1448526,7.81545818 C43.1448526,7.81545818 43.1382737,7.79904404 43.1284053,7.79904404 L43.1119579,7.7826299 L43.0955105,7.7826299 C43.0856421,7.77249253 43.0790632,7.77249253 43.0790632,7.7826299 L43.0626158,7.7826299 L43.0461684,7.7826299 L43.0461684,7.79904404 C42.9968263,7.82755475 42.9310368,7.85070263 42.8816947,7.88111475 C42.6619579,7.99706477 42.4586684,8.10422101 42.2402474,8.20939758 C41.9119568,8.36272404 41.5685368,8.48174626 41.2205105,8.58692283 C40.8705095,8.69146279 40.5159053,8.77028848 40.1678789,8.86596323 C40.1777463,8.78993293 40.1909053,8.71156525 40.2007737,8.63616525 C40.2224832,8.45306275 40.2566947,8.26620364 40.3159053,8.09449859 C40.4040621,7.80684877 40.5645895,7.54029414 40.7435368,7.33944808 C40.8810358,7.16647665 41.0264316,7.05369495 41.2369579,6.81419556 C41.3356411,6.69888687 41.4540632,6.54921091 41.3849842,6.50232687 C41.3534042,6.46430857 41.2501158,6.46949859 41.1711684,6.46949859 L41.1711684,6.46949859 Z M38.7698526,8.78389253 C38.7926411,8.78120796 38.8155789,8.77439071 38.8356421,8.78389253 C38.8948516,8.80353119 38.9376158,8.86446101 38.9672211,8.9316198 C39.0356411,9.09318695 39.0224842,9.25430343 38.9836684,9.4076299 C38.9224832,9.70415018 38.7751158,9.98866424 38.6547211,10.2775794 C38.5349832,10.5443184 38.4593263,10.8359228 38.3586684,11.1147006 C38.4593253,11.1051993 38.5494579,11.1185612 38.6382737,11.0982865 C38.8856411,11.0609053 39.1145895,10.8853176 39.3126158,10.7700036 C39.6711674,10.5482462 39.9718263,10.4483705 40.4474842,10.1790945 C40.6481411,10.0637811 40.8665632,9.91041212 40.9573526,10.0149531 C41.0159042,10.0637391 41.0159053,10.2361002 41.0066947,10.3596501 C40.9869568,10.5047406 40.9494579,10.604817 40.9080105,10.7207612 C40.8001147,11.0166475 40.6264316,11.3244287 40.4968263,11.6399531 C40.3586674,11.9649846 40.2547211,12.2820901 40.1349842,12.6083875 C40.2941937,12.6368987 40.4441947,12.6671317 40.5955105,12.6576299 C40.8823516,12.6671307 41.1770895,12.5537402 41.4343263,12.4770743 C41.7231411,12.3896403 41.9586684,12.333444 42.3553789,12.2472764 C42.6053789,12.1915213 42.8915632,12.1207378 42.9310368,12.1980339 C43.0119579,12.2645624 42.7349842,12.5483564 42.5363,12.7397006 C42.3770884,12.884155 42.2711684,12.9792263 42.1415632,13.0843976 C41.8349832,13.3429001 41.4251158,13.6621596 40.9573526,13.8066198 C40.6685358,13.9035546 40.3540632,13.9351438 40.1843263,14.1841451 C40.1356411,14.250039 40.0988,14.331636 40.1185368,14.3975289 C40.1284042,14.4932042 40.2488,14.5804428 40.3488,14.6273269 C40.5086674,14.7039927 40.6435368,14.7232222 40.7928789,14.7422259 C40.8343253,14.7536296 40.8665632,14.75864 40.9080105,14.75864 C40.9080095,14.7586411 40.9080105,14.7655523 40.9080105,14.7750541 L40.9244579,14.7750541 C40.9343253,14.7750541 40.9474842,14.7914683 40.9573526,14.7914683 C40.9573516,14.8009706 40.9573526,14.7971095 40.9573526,14.8078824 C40.9573516,14.8161179 40.9573526,14.8135289 40.9573526,14.8242966 C40.9573516,14.8344345 40.9672211,14.8324747 40.9573526,14.8407107 C40.9573516,14.8495812 40.9573526,14.8469875 40.9573526,14.8571248 C40.9573516,14.8666261 40.9573526,14.8804461 40.9573526,14.8899531 L40.9409053,14.8899531 C40.9409042,14.8899526 40.9343263,14.8955996 40.9244579,14.9063673 C40.8830095,14.9342482 40.8553789,14.9694291 40.8257737,14.988438 C40.6665621,15.084743 40.4981421,15.1530364 40.2994579,15.2018218 C40.0612989,15.2677147 39.7560368,15.2945289 39.6580105,15.4972764 C39.6284042,15.5631693 39.6218263,15.6346299 39.6415632,15.7106602 C39.6705095,15.8158368 39.7632737,15.9067632 39.8553789,15.9732865 C40.1718253,16.2222887 40.5145895,16.3475657 40.8422211,16.5477814 C41.0507726,16.6719616 41.2455105,16.8376315 41.4343263,16.9909632 C41.4639305,17.0099669 41.4803789,17.0218323 41.5001158,17.0402057 C41.5093253,17.0490766 41.5211684,17.0458469 41.5330105,17.0566198 C41.5330095,17.0566198 41.5244579,17.0730339 41.5330105,17.0730339 C41.5330095,17.0838063 41.5330105,17.0894481 41.5330105,17.0894481 C41.5330095,17.0983196 41.5330105,17.1058622 41.5330105,17.1058622 C41.5330095,17.1166304 41.5415632,17.1222764 41.5330105,17.1222764 C41.5330095,17.1317829 41.5284053,17.1386905 41.5165632,17.1386905 C41.5165621,17.1488279 41.5001158,17.1626473 41.5001158,17.1715188 C41.4803779,17.1816562 41.4705105,17.1866093 41.4507737,17.2043471 C41.3698516,17.2537681 41.2994579,17.3058836 41.2205105,17.3356602 C41.0889305,17.3939533 40.9652474,17.4321859 40.8257737,17.4505592 C40.5974832,17.4892067 40.3645895,17.4701984 40.1349842,17.4505592 C39.8356411,17.4321853 39.5369579,17.4293705 39.2303789,17.3520743 C39.0395884,17.3045558 38.8238,17.2205301 38.6547211,17.2864178 C38.5843253,17.3161996 38.5297211,17.355063 38.4902474,17.4013168 C38.3685358,17.5438693 38.3955105,17.7542339 38.4738,17.9265693 C38.5428779,18.1001716 38.6560368,18.2304226 38.7863,18.353337 C38.9645884,18.5263084 39.1461684,18.7047519 39.2468263,18.9442461 C39.3053779,19.0690623 39.3422211,19.2133697 39.3126158,19.3381855 C39.2935358,19.4338555 39.2323526,19.5241459 39.1810368,19.6008117 C39.1711674,19.6008112 39.1810368,19.6172259 39.1810368,19.6172259 C39.1731411,19.6260921 39.1645895,19.6235026 39.1645895,19.63364 C39.1507726,19.6336395 39.1481421,19.6405471 39.1481421,19.6500541 C39.1389305,19.6500541 39.1415632,19.6405471 39.1316947,19.6500541 L39.1152474,19.6500541 C39.1034042,19.6500541 39.0922211,19.659556 39.0823526,19.6500541 C38.9935358,19.6215434 38.8935368,19.5869871 38.8027474,19.5679834 C38.5336674,19.490682 38.2665632,19.4369067 37.9968263,19.3710137 C37.7987989,19.3215933 37.6198526,19.2725289 37.4211684,19.2725289 C37.2816937,19.2725294 37.1363,19.2792048 37.0264316,19.3545996 C36.96722,19.3926174 36.9099842,19.4446699 36.8784053,19.5023269 C36.8290621,19.6087703 36.8751158,19.7379867 36.8948526,19.863438 C36.9362989,20.0154975 36.9310368,20.1539236 36.9113,20.3066198 C36.8895884,20.4795907 36.8645895,20.6787192 36.7468263,20.7826299 C36.6461674,20.8789355 36.4751158,20.9208501 36.3356421,20.9303572 C36.11722,20.9493603 35.9356421,20.9411879 35.7270895,20.913943 C35.4185358,20.8746604 35.0928789,20.8182683 34.8060368,20.913943 C34.65472,20.9614637 34.5251158,21.0398881 34.3948526,21.1273269 C34.4139305,21.2901552 34.4376158,21.4437337 34.4770895,21.5869228 C34.5073516,21.7307469 34.5520895,21.8646816 34.5922211,22.0465188 C34.6323516,22.2106171 34.6685368,22.4080869 34.5593263,22.4568723 C34.5001147,22.4961565 34.3941947,22.4771471 34.2961684,22.4568723 C34.0955095,22.400487 33.9382737,22.3339737 33.7698526,22.2763168 C33.54222,22.1983856 33.2777474,22.1458125 33.0297211,22.0957612 C32.9882726,22.0957607 32.9382737,22.0888541 32.8981421,22.0793471 C32.8981411,22.0793481 32.8935368,22.0793471 32.8816947,22.0793471 C32.8737989,22.0793481 32.8751158,22.0793471 32.8652474,22.0793471 C32.85472,22.0793481 32.8593263,22.0957612 32.8488,22.0957612 C32.8376147,22.1077995 32.8251158,22.1033091 32.8159053,22.1121754 C32.8159042,22.1121759 32.8257737,22.1285895 32.8159053,22.1285895 C32.8159042,22.1380908 32.8159053,22.1450036 32.8159053,22.1450036 C32.7961674,22.2216642 32.7698526,22.2968752 32.7501158,22.3748016 C32.6323516,22.7682625 32.5159053,23.1650651 32.4047211,23.5566198 C32.2961674,23.9317084 32.1922211,24.3153786 32.0922211,24.6891956 C32.0231411,24.6587829 31.9639316,24.6179556 31.8948526,24.5907107 C31.6955095,24.4849044 31.4882737,24.3788291 31.2698526,24.3116703 C31.0909042,24.2546442 30.8994579,24.2309285 30.7106421,24.2131855 C30.5409042,24.1935457 30.3678789,24.1803572 30.2007737,24.1803572 C30.1691937,24.1803566 30.1547211,24.1803572 30.1349842,24.1803572 C30.1257726,24.1803566 30.1185368,24.1803572 30.1185368,24.1803572 C30.1099832,24.1803566 30.1020895,24.1714857 30.1020895,24.1803572 C30.09222,24.1803566 30.0803789,24.1866339 30.0691947,24.1967713 L30.0691947,24.2131855 C30.0691937,24.222692 30.0527474,24.2295996 30.0527474,24.2295996 C30.04222,24.2802865 30.0290632,24.3071164 30.0198526,24.3444986 C29.9593253,24.5649844 29.8961684,24.7933059 29.8060368,24.9846501 C29.6869568,25.2526555 29.5534053,25.4272279 29.3455105,25.7725289 C29.1053779,26.1457119 28.7751158,26.7580287 28.6053789,26.5768218 C28.5369568,26.5198009 28.4935368,26.3431212 28.4738,26.1992966 C28.4349832,25.9902135 28.4507737,25.8161406 28.4409053,25.6248016 C28.4409042,25.4619697 28.4277474,25.27252 28.4573526,25.0995491 C28.4770884,24.8796947 28.5527474,24.6792525 28.5231421,24.4593976 C28.5132726,24.2952982 28.4270895,24.1283046 28.2764316,24.0326299 C28.2066937,23.9825791 28.1185368,23.9751515 28.0297211,23.9833875 C27.8902463,23.9916287 27.7948526,24.0948251 27.6843263,24.1803572 C27.5165621,24.3146742 27.3573526,24.4399737 27.2073526,24.5742966 C27.0284042,24.7561332 26.8632737,24.9795079 26.7139316,25.1816198 C26.4955095,25.4977793 26.2672211,25.7394905 26.0889316,26.1500541 C26.0086674,26.3420329 25.9501158,26.5653556 25.7928789,26.593236 C25.6928779,26.6135118 25.5619579,26.5574137 25.4310368,26.5111653 C25.3534042,26.472513 25.2757737,26.4608356 25.2172211,26.4126804 C25.0784042,26.306238 25.0494579,26.0813669 25.0691947,25.8710137 C25.0889305,25.6707959 25.1573526,25.473802 25.0363,25.3293471 C24.9777463,25.2723209 24.8849842,25.2213552 24.8060368,25.2308622 C24.6961674,25.2308617 24.6132737,25.3315269 24.5428789,25.4278319 C24.4139305,25.5824295 24.3198526,25.7271891 24.2303789,25.8710137 C24.1020884,26.0914969 23.9751158,26.3221846 23.8356421,26.5604077 C23.6257726,26.9259887 23.3573526,27.2833022 22.9803789,27.4467713 C22.7501168,27.5525787 22.4856421,27.5836679 22.2073526,27.6109127 C22.2172221,27.4987671 22.2073526,27.3802638 22.2073526,27.2662158 C22.2073537,27.1204892 22.2073526,26.9826372 22.2073526,26.8394481 C22.2172221,26.5613074 22.2468263,26.2867459 22.2073526,26.018741 C22.1974853,25.8939189 22.1705105,25.7489818 22.1415632,25.6248016 C22.1415642,25.6248032 22.1415632,25.6178893 22.1415632,25.6083875 C22.1415642,25.599517 22.1251158,25.5919733 22.1251158,25.5919733 C22.1152484,25.5919744 22.1185368,25.5919733 22.1086684,25.5919733 C22.0988011,25.5919744 22.1020895,25.5755592 22.0922211,25.5755592 C22.0823537,25.5755597 22.0691947,25.5755592 22.0593263,25.5755592 C22.0494589,25.5755597 22.0527474,25.5755592 22.0428789,25.5755592 C22.04288,25.5850615 22.0428789,25.5919733 22.0428789,25.5919733 C22.0231432,25.5919744 22.0152474,25.5976198 21.9935368,25.6083875 C21.7948537,25.675552 21.5968263,25.7526481 21.4178789,25.8381855 C21.1290642,25.9623641 20.8665632,26.0895713 20.5790632,26.2321248 C20.2698537,26.3778499 19.9244579,26.5150679 19.6251158,26.6588925 C19.3474853,26.7837088 19.0994579,26.9132828 18.7205105,26.9215188 C18.6020905,26.9322933 18.4810368,26.9299333 18.4409053,26.8722764 C18.3718274,26.7956173 18.4363,26.6297042 18.5066947,26.4947511 C18.6251168,26.2558925 18.6994579,26.0945507 18.7698526,25.903842 C18.8198537,25.7695265 18.8784053,25.6057507 18.9178789,25.4606602 C18.9665642,25.318738 19.0145895,25.178983 19.0659053,25.0338925 C19.0744589,24.9958737 19.0889316,24.9563758 19.0988,24.9189935 C19.0988011,24.9082259 19.0988,24.9025794 19.0988,24.9025794 C19.0988011,24.9025799 19.1053789,24.9025794 19.1152474,24.9025794 C19.1152484,24.8930728 19.1152474,24.8861653 19.1152474,24.8861653 C19.1152484,24.874762 19.1086684,24.8697564 19.0988,24.8697511 C19.0988011,24.8615146 19.1086684,24.853337 19.0988,24.853337 C19.0988011,24.842564 19.0922211,24.8464299 19.0823526,24.8369228 C19.0823537,24.8369223 19.0744579,24.8205034 19.0659053,24.8205087 C19.0659063,24.8205092 19.0593263,24.8040945 19.0494579,24.8040945 C19.0494589,24.8040945 19.0257737,24.8040945 19.0165632,24.8040945 C19.0165642,24.8040945 19.0099842,24.8040945 19.0001158,24.8040945 L19.0001158,24.8205087 C18.9816958,24.8205092 18.9691947,24.8369228 18.9507737,24.8369228 C18.8520905,24.873669 18.7363,24.8987188 18.6382737,24.9189935 C18.2290642,25.0229042 17.7994579,25.0010642 17.3718263,25.0010642 C17.0152484,25.0010642 16.6461684,25.0148836 16.2863,25.0338925 C16.2863011,24.909706 16.2882737,24.7861939 16.3191947,24.6727814 C16.3711695,24.229275 16.7534053,24.0228182 17.2238,23.5894481 C17.6395905,23.2270338 18.1349842,22.6626663 17.8652474,22.4897006 C17.7659063,22.4041627 17.5007737,22.4007176 17.2731421,22.3912158 C17.0238011,22.3817139 16.8139316,22.3773964 16.6152474,22.3583875 C16.3363011,22.3292417 16.0757737,22.2903778 15.6777474,22.2434885 C15.4988011,22.2244843 15.2961684,22.1838303 15.2665632,22.0957612 C15.2264326,22.0114944 15.3961684,21.8582 15.5461684,21.7346501 C15.8152484,21.5141643 16.0020895,21.4048808 16.2205105,21.2914683 C16.6488011,21.0709778 17.1869579,20.8033354 17.6349842,20.4871754 C17.9047221,20.3034357 18.1363,20.0964768 18.3751158,19.8962663 C18.3849853,19.8854944 18.3968263,19.8729398 18.4080105,19.863438 C18.41788,19.8551957 18.4145895,19.8584271 18.4244579,19.8470238 L18.4244579,19.8306097 C18.4343274,19.8211079 18.4409053,19.8141956 18.4409053,19.8141956 C18.4409063,19.8040592 18.4409053,19.7977814 18.4409053,19.7977814 C18.4409063,19.7876446 18.4244579,19.7813673 18.4244579,19.7813673 C18.4244589,19.7718655 18.4178789,19.7649531 18.4080105,19.7649531 C18.4080116,19.7541807 18.4080105,19.7416267 18.4080105,19.7321248 C18.3968274,19.7321254 18.3915632,19.7321248 18.3915632,19.7321248 C18.3816958,19.7226183 18.3586684,19.7321196 18.3586684,19.7321248 C18.3172221,19.7321254 18.2882737,19.7321196 18.2599842,19.7321248 C18.1211695,19.7226183 17.9882737,19.7157107 17.8488,19.7157107 C17.58038,19.7252125 17.3369579,19.7949661 17.0099842,19.6992966 C16.8507747,19.6511419 16.6810368,19.5556663 16.6810368,19.4694986 C16.6613011,19.3750939 16.8395895,19.2759903 17.0099842,19.1904582 C17.3468274,19.0174878 17.5751158,18.9187398 17.8323526,18.8129329 C18.2297221,18.6501004 18.7007737,18.4600158 19.1481421,18.2876804 C19.4474853,18.1812385 19.7251158,18.0652097 20.0034053,17.9593976 C20.0422221,17.9498963 20.0797211,17.9512194 20.1185368,17.9429834 L20.1185368,17.9265693 C20.1297221,17.9265703 20.1238,17.9190267 20.1349842,17.9101552 L20.1514316,17.9101552 C20.1626168,17.900647 20.1678789,17.8773269 20.1678789,17.8773269 C20.16788,17.867189 20.1678789,17.8609127 20.1678789,17.8609127 C20.1566958,17.8526773 20.1514316,17.8444986 20.1514316,17.8444986 C20.1514326,17.8343612 20.1514316,17.8375863 20.1514316,17.8280844 C20.1205116,17.7989392 20.0889316,17.7738889 20.0691947,17.7460137 C19.9882747,17.6693489 19.9251158,17.5866048 19.8553789,17.4998016 C19.7363011,17.3483755 19.6349842,17.1682517 19.5264316,17.0237915 C19.36788,16.8134426 19.2066947,16.6598808 19.0494579,16.38364 C18.9777484,16.2670597 18.9034053,16.1415248 18.9343263,16.0553572 C18.9343274,15.8633774 19.3889316,15.9402796 19.7073526,15.9897006 C20.0356432,16.0277179 20.2422211,16.0445842 20.4803789,16.0553572 C20.7691958,16.0724594 21.1060368,16.0786784 21.4343263,16.0881855 C21.7527484,16.1071943 22.0731421,16.1277055 22.3718263,16.0225289 C22.5113011,15.9737424 22.6389316,15.8972719 22.7172211,15.7927309 C22.81788,15.6875538 22.8652474,15.5407147 22.8652474,15.3987915 C22.8751168,15.2644682 22.8448526,15.1467176 22.8159053,15.0212663 C22.7744589,14.8501968 22.7343263,14.6594776 22.6843263,14.4960137 C22.6152484,14.2375102 22.5290632,14.0046505 22.5691947,13.7081349 C22.5889326,13.5066539 22.6784053,13.2897818 22.8488,13.2321248 C22.9580116,13.1934773 23.0974842,13.2319463 23.2270895,13.2813673 C23.5264326,13.3770378 23.7691947,13.5087911 24.0165632,13.6424784 C24.2159042,13.7387834 24.4211684,13.810764 24.6415632,13.8886905 C24.7691937,13.9355808 24.9139316,13.9845806 25.0527474,14.0035895 C25.2112989,14.0130913 25.3830105,13.9912723 25.5132737,13.9051046 C25.6224832,13.8379453 25.6928789,13.7243285 25.7435368,13.6096501 C25.8020884,13.4468166 25.8119579,13.2878384 25.7928789,13.0679834 C25.7731411,12.694167 25.7139316,12.0546242 25.9738,12.0831349 C26.0632726,12.0831355 26.1869579,12.1850655 26.2863,12.2801046 C26.4455095,12.4245591 26.5316947,12.5941531 26.6810368,12.6904582 C26.7711674,12.7481162 26.8744579,12.7869838 26.9935368,12.8053572 C27.1823516,12.8547792 27.3935368,12.872516 27.5527474,12.8053572 C27.7415621,12.7381994 27.8902474,12.5390646 27.9803789,12.3293471 C28.07972,12.1088623 28.0981421,11.8736275 28.1284053,11.6727814 C28.1481411,11.4991739 28.1711684,11.3490105 28.2106421,11.1475289 C28.2211674,11.0423528 28.2369579,10.9222848 28.2764316,10.8849026 C28.3757726,10.7024288 28.6724842,11.1657079 28.9014316,11.3773269 C29.0487989,11.5192501 29.1863,11.5632925 29.3455105,11.6399531 C29.4696463,11.6916327 29.6049158,11.7614493 29.7402474,11.7876804 C29.5638674,11.8676911 29.3888,11.9353394 29.2139316,12.0174784 C27.7119568,12.7163263 26.2593263,13.4752012 24.8882737,14.3482865 C23.4955095,15.2207304 22.1823526,16.2373624 21.0066947,17.4177309 C20.2126168,18.1837387 19.4764316,19.0061208 19.1481421,20.0604077 C18.8711695,20.8371821 18.8297211,21.7357899 19.1974842,22.4732865 C19.4277484,23.0004309 19.8540632,23.4527511 20.3816947,23.7207612 C20.8277484,23.9710283 21.3441947,24.0835952 21.8619579,24.1311147 C22.4086695,24.1792688 22.9527474,24.1691325 23.4902474,24.1311147 C24.1955116,24.0835941 24.8922211,23.9612848 25.5790632,23.7864178 C26.6336674,23.5386877 27.6481421,23.153562 28.6218263,22.7030844 C29.4487989,22.3216618 30.2310368,21.9004461 31.0066947,21.4391956 C31.2540621,21.2972718 31.5145895,21.1341972 31.7632737,20.9795996 C32.0619568,20.7990288 32.3639316,20.6122327 32.6514316,20.4215188 C33.5270884,19.8563628 34.3744579,19.2413762 35.2007737,18.5995491 C36.1757726,17.8620567 37.1231421,17.0921846 37.9310368,16.153842 C38.5165621,15.4923758 39.0330105,14.7440905 39.1645895,13.8722764 C39.2830095,13.2786039 39.2165632,12.6355588 38.9178789,12.0995491 C38.6014305,11.5039768 38.0020895,11.0639244 37.3553789,10.7864178 C37.0434358,10.6453134 36.7168737,10.5426954 36.3849842,10.4745491 C36.4259779,10.457116 36.4778421,10.4449248 36.5165632,10.4253067 C37.0534042,10.1959494 37.4415632,9.73220444 37.8981421,9.35838747 C38.0198516,9.26271745 38.1284053,9.19010707 38.2270895,9.11217535 C38.3270884,9.03614558 38.4363,8.95403232 38.5560368,8.86596323 C38.6226463,8.82271919 38.7014842,8.79193939 38.7698526,8.78389253 L38.7698526,8.78389253 Z M31.2205105,8.84954909 C31.3198516,8.82990465 31.4494579,8.91110869 31.5494579,8.99727636 C31.7474832,9.1499678 31.8909053,9.2776299 32.0099842,9.44045818 C32.1691937,9.64193927 32.3113,9.89162384 32.3718263,10.1298521 C32.4196305,10.3472541 32.4093316,10.5624554 32.3882737,10.7864178 C31.6658147,10.9920956 30.9571421,11.2603321 30.2665632,11.5578824 C30.2954989,11.5145916 30.3124526,11.4559309 30.3323526,11.4101552 C30.3803779,11.2771029 30.4113,11.1568154 30.4310368,11.0326299 C30.4606411,10.8590287 30.4988,10.6790824 30.5297211,10.5073774 C30.5580095,10.3065308 30.5724842,10.1078125 30.6119579,9.91646828 C30.6724832,9.63768998 30.7718263,9.39032283 30.9409053,9.11217535 C31.0191937,8.98799568 31.1113,8.85905091 31.2205105,8.84954909 L31.2205105,8.84954909 Z M35.0527474,11.1147006 C35.7296253,11.0950992 36.3997842,11.1892707 37.0264316,11.4758117 C37.5139305,11.6779242 37.9889316,11.9943988 38.2270895,12.4442461 C38.4455095,12.8282004 38.4882737,13.3170319 38.4080105,13.7573774 C38.2994568,14.4948676 37.8363,15.1044925 37.3389316,15.6614178 C36.5527463,16.5604778 35.6593263,17.3053006 34.7238,18.0250541 C33.9178779,18.6472362 33.0744579,19.2414917 32.2073526,19.7977814 C31.9205095,19.9796191 31.6395895,20.1576109 31.3520895,20.3394481 C31.1027463,20.4921442 30.8428789,20.6539535 30.5955105,20.799044 C29.8501147,21.239389 29.0738,21.6386077 28.2764316,22.0136905 C27.3514305,22.4445284 26.3863,22.8342032 25.3816947,23.0641956 C24.7435358,23.2175231 24.0922211,23.3121305 23.4244579,23.3596501 C22.9369589,23.3982982 22.4422211,23.4078 21.9441947,23.3596501 C21.5369589,23.3298735 21.1251158,23.2555398 20.7764316,23.0641956 C20.3981432,22.8722221 20.0909053,22.5510133 19.9211684,22.1778319 C19.6336695,21.6019025 19.6836684,20.8952808 19.9047211,20.2902057 C20.1922221,19.3518678 20.8534053,18.619078 21.5494579,17.9265693 C22.69288,16.805755 23.9731421,15.82984 25.3159053,14.988438 C26.6586674,14.1254901 28.0705105,13.3968493 29.5428789,12.7068723 C31.0757726,11.9788828 32.6672211,11.3064966 34.3784053,11.163943 C34.6019253,11.1352684 34.8271211,11.1212347 35.0527474,11.1147006 L35.0527474,11.1147006 Z" id="path2572"></path>
                        </g>
                    </g>
                </g>
            </g>
        </g>
    </g>
</svg>